<?xml version="1.0" encoding="UTF-8" standalone="no"?><!DOCTYPE svg PUBLIC "-//W3C//DTD SVG 1.1//EN" "http://www.w3.org/Graphics/SVG/1.1/DTD/svg11.dtd"><svg width="100%" height="100%" viewBox="0 0 185 172" version="1.1" xmlns="http://www.w3.org/2000/svg" xmlns:xlink="http://www.w3.org/1999/xlink" xml:space="preserve" style="fill-rule:evenodd;clip-rule:evenodd;stroke-linejoin:round;stroke-miterlimit:1.41421;"><path d="M39.825,134.475c-0.15,-0.15 -0.3,-0.3 -0.375,-0.45c-0.075,0.075 -0.225,0.075 -0.3,0.15c0.225,0.075 0.45,0.15 0.675,0.3Z" style="fill:none;"/><path d="M102.6,0c-45.225,0 -81.9,36.675 -81.9,81.9c0,14.775 3.9,28.65 10.725,40.575c0.15,0 0.375,0 0.525,0c1.725,0 3.45,0.15 5.25,0.45c1.425,0.225 2.55,1.275 3,2.625c0.375,1.275 0.825,2.475 1.275,3.675c0.375,1.05 0.3,2.175 -0.225,3.15c-0.45,0.75 -1.125,1.35 -1.95,1.65c0.15,0.15 0.3,0.3 0.375,0.45c1.35,0.75 2.55,1.725 3.675,2.775c2.175,1.875 4.5,3.825 7.2,3.825c1.125,0 2.325,-0.3 3.6,-0.9c0.525,-0.225 1.05,-0.375 1.575,-0.375c0.75,0 1.575,0.225 2.175,0.75c1.125,0.825 1.65,2.1 1.5,3.45c-0.3,2.475 -0.675,4.725 -1.2,6.9c12.75,8.175 27.9,12.975 44.175,12.975c45.225,0 81.9,-36.675 81.9,-81.9c0.225,-45.3 -36.45,-81.975 -81.675,-81.975Z" style="fill:#1f739d;fill-rule:nonzero;"/><g><path d="M108,155.475c-1.65,0.075 -3.225,0.15 -4.875,0.15c-1.575,0 -3.15,-0.075 -4.725,-0.225l-0.075,0c-1.2,-0.075 -2.4,-0.225 -3.6,-0.375c-7.575,-0.975 -15.225,-3 -22.8,-5.925c-2.85,-1.125 -5.7,-2.475 -8.4,-4.2l2.325,-18.45c6.15,-7.65 19.95,-24 28.875,-34.425c1.275,-1.5 2.475,-2.925 3.6,-4.125l0.075,-0.075c1.575,-1.8 3.15,-3.6 4.725,-5.4c1.65,-1.875 3.225,-3.675 4.8,-5.4l0.075,-0.075l1.425,-1.575l2.1,-2.325c-0.825,-1.5 -1.5,-3 -2.1,-4.575c-0.675,-1.95 -1.125,-3.975 -1.425,-5.925l-0.075,-0.675c-0.3,-2.4 -0.3,-4.725 0,-7.125l0.075,-0.675l1.425,-5.925l0.15,-0.375c4.125,-11.25 14.625,-18.975 26.475,-19.5c0.225,0 0.45,0 0.75,0c0.825,0 1.65,0 2.475,0.075c-0.825,-0.6 -1.65,-1.125 -2.475,-1.65l-0.75,-0.45c-8.7,-5.4 -18.3,-8.4 -28.05,-9.225l-9.6,-0.075c-16.425,1.125 -32.325,8.55 -43.875,21.75c-10.575,12.075 -16.725,28.2 -16.2,45.45c0.15,5.25 0.975,10.5 2.4,15.6c0.15,0.45 32.475,-35.625 34.95,-38.4c6,-7.425 14.175,-3.45 19.05,2.4c1.65,1.95 2.85,4.05 3.6,6.075l0.075,0.225c0.3,1.05 0.525,2.025 0.525,2.925l-0.525,2.4l-0.075,0.15c-0.075,0.15 -0.225,0.375 -0.375,0.525l-3.225,3.75l-36.225,42c-7.5,-0.525 -17.1,0.375 -21.075,-6.975l-5.925,-17.55c-3,-12.975 -1.65,-27.225 2.7,-39.75c1.425,-3.975 3.15,-8.025 5.25,-11.7c2.475,-4.5 5.475,-8.7 8.85,-12.6c11.55,-13.425 26.925,-21.525 43.125,-24.075l6.975,-0.75c3.15,-0.225 6.375,-0.15 9.6,0.075l7.2,0.9c7.2,1.275 14.175,3.6 20.85,7.125l0.75,0.375c2.25,1.2 4.425,2.55 6.6,4.05l0.675,0.525c2.325,1.65 4.575,3.45 6.75,5.4c13.725,12.375 22.8,30 24.225,50.025c0.15,1.575 0.15,3.3 0.225,5.025c-0.075,7.35 -1.05,14.775 -3.15,21.825c-2.4,7.95 -6.15,15.375 -10.875,21.975c-4.8,6.675 -10.65,12.45 -17.175,17.025l-0.675,0.525c-2.1,1.5 -4.35,2.85 -6.6,4.05l-0.75,0.375c-1.125,0.6 -2.175,1.125 -3.3,1.65c-3.9,1.8 -7.95,3.225 -12.075,4.275l-12.675,1.875Z" style="fill:#fff;fill-rule:nonzero;"/><path d="M107.775,141.3l-0.075,0c-0.825,0.3 -1.725,0.45 -2.7,0.6c-0.675,0.9 -1.35,1.8 -2.1,2.55c-1.05,1.125 -2.1,2.025 -3.225,2.925c1.05,0.075 2.175,0.075 3.225,0.075l4.875,-0.225c7.35,-0.6 14.55,-2.55 21.3,-5.625c2.325,-1.05 4.575,-2.325 6.75,-3.675l0.75,-0.45l6.6,-4.8l0.675,-0.6c2.4,-2.025 4.65,-4.275 6.675,-6.675c6.675,-7.65 11.7,-16.8 14.25,-27.075c1.725,-6.825 2.325,-14.025 1.8,-21.075c-0.225,-3.375 -0.75,-6.75 -1.5,-9.975c-3.15,10.125 -11.325,17.7 -21.225,20.1l-0.675,0.15c-2.175,0.45 -4.35,0.675 -6.6,0.675l-0.75,0c-0.45,0 -0.9,0 -1.35,-0.075c-0.15,0.6 -0.375,1.275 -0.6,2.025c-2.625,8.625 -6.975,24.075 -9.825,30.6c-3.525,8.1 -7.725,16.8 -14.85,20.025l-1.425,0.525Z" style="fill:#1f739d;fill-rule:nonzero;"/><path d="M98.175,94.425l-0.075,0.075c-1.125,1.2 -2.325,2.55 -3.6,4.125c-3.75,4.5 -8.025,10.35 -12.75,17.625c-2.175,3.3 -1.275,9 0.825,13.65c2.4,5.175 7.425,6.75 11.4,0.6c0,0 1.875,1.125 4.125,0.525l2.4,-1.275c0.825,-0.675 1.575,-1.65 2.325,-3.075c1.8,-2.775 3.375,-5.55 4.8,-8.25l0.075,-0.15c0.525,-0.975 0.975,-1.875 1.425,-2.85c8.85,-18.3 8.925,-32.85 0,-29.625l-1.425,0.6l-0.075,0.075c-1.425,0.75 -3,1.875 -4.8,3.375l-4.65,4.575Z" style="fill:#1f739d;fill-rule:nonzero;"/><path d="M143.1,38.475c-2.175,-0.75 -4.35,-1.125 -6.6,-1.05c-0.225,0 -0.45,0 -0.75,0c-6.45,0.225 -12.675,3.525 -16.5,9.375c-6.3,9.675 -3.75,22.725 5.775,29.175c3.3,2.25 7.05,3.375 10.725,3.525c0.225,0 0.45,0 0.75,0l6.6,-1.125c0.225,-0.075 0.45,-0.15 0.675,-0.225c3.9,-1.5 7.425,-4.2 9.9,-8.025c6.3,-9.675 3.75,-22.725 -5.775,-29.175c-1.35,-0.9 -2.7,-1.575 -4.125,-2.175l-0.675,-0.3Z" style="fill:#1f739d;fill-rule:nonzero;"/><path d="M98.175,122.7c-1.05,0.6 -2.25,0.6 -3.675,-0.525l0,-15.225l3.675,-4.875c1.725,-2.1 3.3,-3.825 4.725,-5.1c0.975,-0.9 1.875,-1.575 2.7,-2.1l2.175,-0.975c0.525,-0.15 1.05,-0.15 1.425,0c1.95,0.6 2.1,4.125 0,9.975l-1.425,3.525c-1.2,2.7 -2.85,5.775 -4.875,9.225c-0.525,0.825 -1.05,1.725 -1.575,2.55c-0.45,0.675 -0.9,1.425 -1.425,2.025l-1.725,1.5Z" style="fill:#fff;fill-rule:nonzero;"/><path d="M143.1,72.375l-0.525,0.375l0.525,-0.825c0.225,-0.45 0.525,-0.825 0.675,-1.275c2.175,-4.275 2.475,-9.075 0,-13.2c-0.225,-0.375 -0.45,-0.675 -0.675,-1.05l-3.15,-3.075c-1.425,-1.125 -3.225,-2.475 -4.2,-4.05c-0.225,-0.375 -0.45,-0.75 -0.6,-1.125c-0.3,-0.975 -0.15,-2.25 0.6,-3.225c0.9,-1.35 2.7,-2.25 5.1,-1.65c0.75,0.225 1.5,0.45 2.175,0.75l0.675,0.375c5.175,2.85 7.95,9.45 7.2,15.375c-0.675,4.8 -3.15,8.85 -7.2,12l-0.6,0.6Z" style="fill:#fff;fill-rule:nonzero;"/></g><path d="M6.525,152.25c3.375,-0.3 6.9,-4.05 9.75,-4.275c-0.6,8.475 -9.45,13.875 -16.275,16.425c10.35,6.825 18.525,7.425 29.175,2.625c0,0 0.15,3.225 -0.75,4.65c13.2,-0.375 24.075,-7.95 26.4,-27.825c-13.2,6.075 -17.1,-12.675 -23.1,-4.05c-6.525,9.375 -10.875,5.7 -11.025,1.65c-0.15,-3.375 2.1,-6.975 6.375,-8.85c3.15,-1.35 7.575,-1.35 9.9,-1.875c-0.525,-1.275 -0.9,-2.55 -1.35,-3.9c-19.875,-3.15 -25.5,13.8 -27.3,20.925c-0.375,1.725 -1.8,4.5 -1.8,4.5Z" style="fill:#ffcc80;fill-rule:nonzero;"/></svg>