<?xml version="1.0" encoding="UTF-8" standalone="no"?><!DOCTYPE svg PUBLIC "-//W3C//DTD SVG 1.1//EN" "http://www.w3.org/Graphics/SVG/1.1/DTD/svg11.dtd"><svg width="100%" height="100%" viewBox="0 0 316 89" version="1.1" xmlns="http://www.w3.org/2000/svg" xmlns:xlink="http://www.w3.org/1999/xlink" xml:space="preserve" style="fill-rule:evenodd;clip-rule:evenodd;stroke-linejoin:round;stroke-miterlimit:1.41421;"><g><g><path d="M0.02,86.622c-0.144,0.936 0.504,1.584 1.368,1.584l8.496,0c0.72,0 1.296,-0.576 1.368,-1.152l3.168,-22.248l0.144,0l12.168,23.328c0.216,0.432 0.792,0.792 1.224,0.792l1.296,0c0.36,0 1.008,-0.36 1.224,-0.792l12.096,-23.328l0.144,0l3.24,22.248c0.072,0.576 0.72,1.152 1.368,1.152l8.496,0c0.864,0 1.512,-0.648 1.368,-1.584l-8.136,-48.384c-0.072,-0.648 -0.72,-1.152 -1.296,-1.152l-1.152,0c-0.36,0 -1.008,0.288 -1.224,0.72l-16.704,31.104l-0.144,0l-16.704,-31.104c-0.216,-0.432 -0.864,-0.72 -1.224,-0.72l-1.152,0c-0.576,0 -1.224,0.504 -1.296,1.152l-8.136,48.384Z" style="fill:#fff;fill-rule:nonzero;"/><path d="M61.292,79.422c0,5.688 4.248,9.504 9.936,9.504c4.536,0 7.056,-2.088 8.712,-3.6l1.008,1.944c0.36,0.792 0.864,0.936 1.296,0.936l3.168,0c0.72,0 1.368,-0.648 1.368,-1.368l0,-15.912c0,-8.496 -3.24,-12.24 -12.168,-12.24c-3.888,0 -8.928,0.864 -9.576,1.08c-0.648,0.216 -1.296,0.72 -1.08,1.944l0.648,4.536c0.144,1.08 0.648,1.872 1.728,1.512c1.872,-0.576 5.256,-1.08 7.2,-1.08c3.456,0 3.888,1.44 3.888,4.248c0,0 -2.304,-1.152 -5.544,-1.152c-6.552,0 -10.584,4.104 -10.584,9.648Zm9.36,-0.72c0,-1.656 1.368,-3.024 3.096,-3.024c1.728,0 3.096,1.368 3.168,3.024c0,1.728 -1.44,3.168 -3.168,3.168c-1.728,0 -3.096,-1.44 -3.096,-3.168Z" style="fill:#fff;fill-rule:nonzero;"/><path d="M92.684,88.206l8.568,0c0.504,0 0.936,-0.288 1.152,-0.576c1.224,-1.728 3.168,-4.248 4.608,-6.264l0.216,0l4.392,6.192c0.216,0.288 0.576,0.648 1.08,0.648l8.712,0c1.152,0 1.728,-1.224 1.08,-2.16l-9.144,-12.6l9.072,-11.88c0.72,-0.936 0.144,-2.16 -1.08,-2.16l-8.856,0c-0.72,0 -1.008,0.288 -1.152,0.576l-4.104,5.904l-0.216,0l-4.032,-5.904c-0.144,-0.288 -0.576,-0.576 -1.152,-0.576l-8.856,0c-1.224,0 -1.8,1.224 -1.08,2.16l9.072,11.952l-9.36,12.528c-0.648,0.936 -0.144,2.16 1.08,2.16Z" style="fill:#fff;fill-rule:nonzero;"/></g><g><path d="M188.985,86.838c0,0.72 0.648,1.368 1.368,1.368l7.92,0c0.72,0 1.368,-0.648 1.368,-1.368l0,-47.664c0,-0.72 -0.648,-1.368 -1.368,-1.368l-7.92,0c-0.72,0 -1.368,0.648 -1.368,1.368l0,47.664Z" style="fill:#fff;fill-rule:nonzero;"/><path d="M212.673,50.694c3.168,0 5.76,-2.52 5.76,-5.688c0,-3.168 -2.592,-5.76 -5.76,-5.76c-3.168,0 -5.688,2.592 -5.688,5.76c0,3.168 2.52,5.688 5.688,5.688Zm-5.256,36.144c0,0.72 0.648,1.368 1.368,1.368l7.92,0c0.72,0 1.368,-0.648 1.368,-1.368l0,-26.064c0,-0.792 -0.648,-1.368 -1.368,-1.368l-7.92,0c-0.72,0 -1.368,0.576 -1.368,1.368l0,26.064Z" style="fill:#fff;fill-rule:nonzero;"/><path d="M223.761,73.806c0,8.28 6.12,15.12 14.256,15.12c6.336,0 9.648,-4.536 9.648,-4.536l0.864,2.376c0.288,0.792 0.792,1.44 1.512,1.44l3.384,0c0.72,0 1.368,-0.648 1.368,-1.368l0,-47.664c0,-0.72 -0.648,-1.368 -1.368,-1.368l-7.992,0c-0.72,0 -1.368,0.648 -1.368,1.368l0,20.88c-0.864,-0.504 -3.528,-1.368 -5.976,-1.368c-7.704,0 -14.328,4.968 -14.328,15.12Zm9.864,-0.072c0,-3.24 2.52,-5.76 5.832,-5.76c3.312,0 5.76,2.52 5.76,5.76c0,3.312 -2.448,5.904 -5.76,5.904c-3.312,0 -5.832,-2.592 -5.832,-5.904Z" style="fill:#fff;fill-rule:nonzero;"/><path d="M260.409,73.806c0,8.28 6.48,15.12 15.048,15.12c4.536,0 8.136,-1.584 10.656,-4.104c0.648,-0.648 0.504,-1.512 0.072,-2.088l-3.6,-4.32c-0.432,-0.504 -1.152,-0.504 -1.8,0c-1.152,0.864 -3.24,1.728 -5.04,1.728c-3.744,0 -5.328,-2.808 -5.544,-4.752l17.28,0c0.648,0 1.296,-0.504 1.368,-1.224c0.072,-0.504 0.144,-1.44 0.144,-1.944c0,-7.92 -6.336,-13.536 -13.68,-13.536c-8.496,0 -14.904,6.984 -14.904,15.12Zm10.728,-4.032c0.288,-1.872 1.944,-3.384 3.888,-3.384c1.872,0 3.672,1.512 3.816,3.384l-7.704,0Z" style="fill:#fff;fill-rule:nonzero;"/><path d="M294.177,86.838c0,0.72 0.648,1.368 1.368,1.368l7.344,0c1.152,0 1.584,-0.504 1.584,-1.368l0,-14.904c0,-2.448 1.656,-4.104 3.816,-4.104c0.648,0 1.368,0.216 1.728,0.36c0.792,0.288 1.296,-0.144 1.584,-0.648l3.528,-5.76c1.008,-1.656 -1.8,-3.096 -5.76,-3.096c-3.744,0 -6.408,2.664 -7.848,4.752l-1.296,-3.168c-0.216,-0.432 -0.504,-0.864 -1.296,-0.864l-3.384,0c-0.72,0 -1.368,0.576 -1.368,1.368l0,26.064Z" style="fill:#fff;fill-rule:nonzero;"/></g><path d="M161.225,11.111l0,0l13.452,-2.208l-1.262,-8.903l18.83,13.781l-13.781,18.83l-1.263,-8.152l-14.476,2.266l0,0.019c-0.337,0.042 -0.672,0.088 -1.002,0.138l-0.492,0.077c-2.599,0.422 -4.988,1.046 -7.213,1.595c-2.916,0.72 -5.328,1.404 -7.236,2.052c-1.908,0.648 -2.862,1.08 -2.862,1.296c-0.072,0.36 0.882,0.846 2.862,1.458c1.98,0.612 4.446,1.44 7.398,2.484c2.952,1.044 6.12,2.376 9.504,3.996c3.384,1.62 6.516,3.582 9.396,5.886c2.88,2.304 5.22,5.022 7.02,8.154c1.8,3.132 2.592,6.714 2.376,10.746c-0.288,4.968 -1.296,9.036 -3.024,12.204c-1.728,3.168 -3.924,5.652 -6.588,7.452c-2.664,1.8 -5.706,3.024 -9.126,3.672c-3.42,0.648 -7.002,0.972 -10.746,0.972c-3.744,0 -7.128,-0.846 -10.152,-2.538c-3.024,-1.692 -5.58,-3.762 -7.668,-6.21c-2.088,-2.448 -3.69,-5.058 -4.806,-7.83c-1.116,-2.772 -1.602,-5.202 -1.458,-7.29c0.144,-2.088 0.324,-3.978 0.54,-5.67c0.216,-1.692 0.468,-3.15 0.756,-4.374c0.288,-1.368 0.612,-2.628 0.972,-3.78c-0.072,0.864 -0.144,1.836 -0.216,2.916c-0.072,0.936 -0.126,2.052 -0.162,3.348c-0.036,1.296 -0.018,2.736 0.054,4.32c0,-1.296 0.072,-2.646 0.216,-4.05c0.144,-1.404 0.288,-2.682 0.432,-3.834c0.216,-1.296 0.432,-2.592 0.648,-3.888l1.728,-1.944l0.54,1.296c-0.36,5.544 0.36,9.9 2.16,13.068c1.8,3.168 4.14,5.472 7.02,6.912c2.88,1.44 6.03,2.178 9.45,2.214c3.42,0.036 6.642,-0.288 9.666,-0.972c3.024,-0.684 5.544,-1.584 7.56,-2.7c2.016,-1.116 3.06,-2.106 3.132,-2.97c0.072,-1.152 -0.54,-2.232 -1.836,-3.24c-1.296,-1.008 -3.024,-1.998 -5.184,-2.97c-2.16,-0.972 -4.608,-1.926 -7.344,-2.862c-2.736,-0.936 -5.544,-1.944 -8.424,-3.024c-2.88,-1.08 -5.706,-2.232 -8.478,-3.456c-2.772,-1.224 -5.202,-2.592 -7.29,-4.104c-2.088,-1.512 -3.762,-3.222 -5.022,-5.13c-1.26,-1.908 -1.818,-4.014 -1.674,-6.318c0.144,-2.304 0.324,-4.068 0.54,-5.292c0.216,-1.224 0.396,-2.124 0.54,-2.7c0.216,-0.648 0.432,-0.972 0.648,-0.972c0.072,-1.944 1.044,-3.654 2.916,-5.13c1.872,-1.476 4.194,-2.754 6.966,-3.834c2.772,-1.08 5.796,-1.98 9.072,-2.7c3.276,-0.72 6.39,-1.278 9.342,-1.674c1.065,-0.143 2.08,-0.297 3.049,-0.433Z" style="fill:#fc0;"/></g></svg>